<svg xmlns="http://www.w3.org/2000/svg" xmlns:xlink="http://www.w3.org/1999/xlink" width="970" zoomAndPan="magnify" viewBox="0 0 727.5 793.49998" height="1058" preserveAspectRatio="xMidYMid meet" version="1.0"><defs><filter x="0%" y="0%" width="100%" height="100%" id="16ceaaf8a4"><feColorMatrix values="0 0 0 0 1 0 0 0 0 1 0 0 0 0 1 0 0 0 1 0" color-interpolation-filters="sRGB"/></filter><g/><clipPath id="f4f6aa3e49"><path d="M 0 0.0234375 L 727 0.0234375 L 727 792.976562 L 0 792.976562 Z M 0 0.0234375 " clip-rule="nonzero"/></clipPath><clipPath id="0f534a154b"><path d="M 0 0.0234375 L 727 0.0234375 L 727 792.976562 L 0 792.976562 Z M 0 0.0234375 " clip-rule="nonzero"/></clipPath><clipPath id="a8d976f6ad"><path d="M 0 0.0234375 L 727 0.0234375 L 727 792.976562 L 0 792.976562 Z M 0 0.0234375 " clip-rule="nonzero"/></clipPath><clipPath id="6e183b32b8"><path d="M 0 0.0234375 L 727 0.0234375 L 727 792.976562 L 0 792.976562 Z M 0 0.0234375 " clip-rule="nonzero"/></clipPath><clipPath id="f038a8a084"><path d="M 0 0.0234375 L 727 0.0234375 L 727 792.976562 L 0 792.976562 Z M 0 0.0234375 " clip-rule="nonzero"/></clipPath><linearGradient x1="-35.599129" gradientTransform="matrix(2.405743, 0, 0, 2.406254, 85.642347, -1.084943)" y1="199.5" x2="266.594571" gradientUnits="userSpaceOnUse" y2="199.5" id="b26ec42cc8"><stop stop-opacity="1" stop-color="rgb(100%, 88.62915%, 42.749023%)" offset="0"/><stop stop-opacity="1" stop-color="rgb(100%, 88.560486%, 42.712402%)" offset="0.125"/><stop stop-opacity="1" stop-color="rgb(100%, 88.345337%, 42.59491%)" offset="0.140625"/><stop stop-opacity="1" stop-color="rgb(100%, 88.050842%, 42.436218%)" offset="0.15625"/><stop stop-opacity="1" stop-color="rgb(100%, 87.756348%, 42.276001%)" offset="0.171875"/><stop stop-opacity="1" stop-color="rgb(100%, 87.460327%, 42.11731%)" offset="0.1875"/><stop stop-opacity="1" stop-color="rgb(100%, 87.165833%, 41.957092%)" offset="0.203125"/><stop stop-opacity="1" stop-color="rgb(100%, 86.871338%, 41.798401%)" offset="0.21875"/><stop stop-opacity="1" stop-color="rgb(100%, 86.576843%, 41.638184%)" offset="0.234375"/><stop stop-opacity="1" stop-color="rgb(100%, 86.280823%, 41.479492%)" offset="0.25"/><stop stop-opacity="1" stop-color="rgb(100%, 85.986328%, 41.319275%)" offset="0.265625"/><stop stop-opacity="1" stop-color="rgb(100%, 85.691833%, 41.159058%)" offset="0.28125"/><stop stop-opacity="1" stop-color="rgb(100%, 85.397339%, 41.000366%)" offset="0.296875"/><stop stop-opacity="1" stop-color="rgb(100%, 85.101318%, 40.840149%)" offset="0.3125"/><stop stop-opacity="1" stop-color="rgb(100%, 84.806824%, 40.681458%)" offset="0.328125"/><stop stop-opacity="1" stop-color="rgb(100%, 84.512329%, 40.52124%)" offset="0.34375"/><stop stop-opacity="1" stop-color="rgb(100%, 84.217834%, 40.362549%)" offset="0.359375"/><stop stop-opacity="1" stop-color="rgb(100%, 83.921814%, 40.202332%)" offset="0.375"/><stop stop-opacity="1" stop-color="rgb(100%, 83.627319%, 40.04364%)" offset="0.390625"/><stop stop-opacity="1" stop-color="rgb(100%, 83.332825%, 39.883423%)" offset="0.40625"/><stop stop-opacity="1" stop-color="rgb(100%, 83.03833%, 39.724731%)" offset="0.421875"/><stop stop-opacity="1" stop-color="rgb(100%, 82.74231%, 39.564514%)" offset="0.4375"/><stop stop-opacity="1" stop-color="rgb(100%, 82.447815%, 39.404297%)" offset="0.453125"/><stop stop-opacity="1" stop-color="rgb(100%, 82.15332%, 39.245605%)" offset="0.46875"/><stop stop-opacity="1" stop-color="rgb(100%, 81.858826%, 39.085388%)" offset="0.484375"/><stop stop-opacity="1" stop-color="rgb(100%, 81.562805%, 38.926697%)" offset="0.5"/><stop stop-opacity="1" stop-color="rgb(100%, 81.268311%, 38.766479%)" offset="0.515625"/><stop stop-opacity="1" stop-color="rgb(100%, 80.973816%, 38.607788%)" offset="0.53125"/><stop stop-opacity="1" stop-color="rgb(100%, 80.679321%, 38.447571%)" offset="0.546875"/><stop stop-opacity="1" stop-color="rgb(100%, 80.383301%, 38.288879%)" offset="0.5625"/><stop stop-opacity="1" stop-color="rgb(100%, 80.088806%, 38.128662%)" offset="0.578125"/><stop stop-opacity="1" stop-color="rgb(100%, 79.794312%, 37.968445%)" offset="0.59375"/><stop stop-opacity="1" stop-color="rgb(100%, 79.499817%, 37.809753%)" offset="0.609375"/><stop stop-opacity="1" stop-color="rgb(100%, 79.203796%, 37.649536%)" offset="0.625"/><stop stop-opacity="1" stop-color="rgb(100%, 78.909302%, 37.490845%)" offset="0.640625"/><stop stop-opacity="1" stop-color="rgb(100%, 78.614807%, 37.330627%)" offset="0.65625"/><stop stop-opacity="1" stop-color="rgb(100%, 78.320312%, 37.171936%)" offset="0.671875"/><stop stop-opacity="1" stop-color="rgb(100%, 78.024292%, 37.011719%)" offset="0.6875"/><stop stop-opacity="1" stop-color="rgb(100%, 77.729797%, 36.853027%)" offset="0.703125"/><stop stop-opacity="1" stop-color="rgb(100%, 77.435303%, 36.69281%)" offset="0.71875"/><stop stop-opacity="1" stop-color="rgb(100%, 77.140808%, 36.534119%)" offset="0.734375"/><stop stop-opacity="1" stop-color="rgb(100%, 76.844788%, 36.373901%)" offset="0.75"/><stop stop-opacity="1" stop-color="rgb(100%, 76.550293%, 36.213684%)" offset="0.765625"/><stop stop-opacity="1" stop-color="rgb(100%, 76.255798%, 36.054993%)" offset="0.78125"/><stop stop-opacity="1" stop-color="rgb(100%, 75.961304%, 35.894775%)" offset="0.796875"/><stop stop-opacity="1" stop-color="rgb(100%, 75.665283%, 35.736084%)" offset="0.8125"/><stop stop-opacity="1" stop-color="rgb(100%, 75.370789%, 35.575867%)" offset="0.828125"/><stop stop-opacity="1" stop-color="rgb(100%, 75.076294%, 35.417175%)" offset="0.84375"/><stop stop-opacity="1" stop-color="rgb(100%, 74.780273%, 35.256958%)" offset="0.859375"/><stop stop-opacity="1" stop-color="rgb(100%, 74.485779%, 35.098267%)" offset="0.875"/><stop stop-opacity="1" stop-color="rgb(100%, 74.229431%, 34.959412%)" offset="1"/></linearGradient><clipPath id="09d0811f1a"><rect x="0" width="727" y="0" height="793"/></clipPath><clipPath id="c0176f8b8e"><path d="M 0 0.0234375 L 727 0.0234375 L 727 792.976562 L 0 792.976562 Z M 0 0.0234375 " clip-rule="nonzero"/></clipPath><clipPath id="9a89231325"><rect x="0" width="727" y="0" height="793"/></clipPath><clipPath id="6260080064"><rect x="0" width="727" y="0" height="793"/></clipPath><mask id="03ea1b1098"><g filter="url(#16ceaaf8a4)"><g transform="matrix(1, 0, 0, 1, 0, -0.000000000000033546)"><g clip-path="url(#6260080064)"><g clip-path="url(#c0176f8b8e)"><g transform="matrix(1, 0, 0, 1, 0, -0.000000000000033546)"><g clip-path="url(#9a89231325)"><g fill="#000000" fill-opacity="1"><g transform="translate(87.107042, 678.721664)"><g><path d="M 69.796875 -10.421875 C 48.929688 -20.585938 32.210938 -34.894531 19.640625 -53.34375 C 7.078125 -71.800781 -0.132812 -92.125 -2 -114.3125 C -3.875 -136.507812 0 -157.769531 9.625 -178.09375 L 161.25 -499.796875 C 172.476562 -523.859375 188.519531 -542.039062 209.375 -554.34375 C 230.238281 -566.644531 252.566406 -572.925781 276.359375 -573.1875 C 300.160156 -573.457031 322.488281 -567.578125 343.34375 -555.546875 C 364.207031 -543.515625 380.523438 -525.195312 392.296875 -500.59375 L 545.515625 -178.09375 C 555.679688 -157.769531 559.691406 -136.507812 557.546875 -114.3125 C 555.410156 -92.125 548.191406 -71.800781 535.890625 -53.34375 C 523.585938 -34.894531 506.742188 -20.585938 485.359375 -10.421875 C 464.492188 -0.796875 442.828125 3.078125 420.359375 1.203125 C 397.898438 -0.671875 377.578125 -7.890625 359.390625 -20.453125 C 341.210938 -33.023438 327.039062 -49.738281 316.875 -70.59375 L 247.890625 -215.796875 C 247.359375 -217.398438 246.019531 -217.9375 243.875 -217.40625 C 241.738281 -216.875 240.9375 -215.269531 241.46875 -212.59375 L 263.140625 -122.734375 L 239.0625 -70.59375 C 228.90625 -49.738281 214.597656 -33.023438 196.140625 -20.453125 C 177.691406 -7.890625 157.367188 -0.671875 135.171875 1.203125 C 112.984375 3.078125 91.191406 -0.796875 69.796875 -10.421875 Z M 69.796875 -10.421875 "/></g></g></g></g></g></g></g></g></g></mask><clipPath id="21e73c92d1"><path d="M 0 0.0234375 L 727 0.0234375 L 727 792.976562 L 0 792.976562 Z M 0 0.0234375 " clip-rule="nonzero"/></clipPath><clipPath id="c84b65da28"><rect x="0" width="727" y="0" height="793"/></clipPath><clipPath id="0fee54a7a8"><rect x="0" width="727" y="0" height="793"/></clipPath><clipPath id="435d583cb5"><rect x="0" width="727" y="0" height="793"/></clipPath><clipPath id="c55f05a903"><path d="M 217.859375 334.078125 L 510.109375 334.078125 L 510.109375 626.328125 L 217.859375 626.328125 Z M 217.859375 334.078125 " clip-rule="nonzero"/></clipPath><clipPath id="e3ecbf44dc"><rect x="0" width="727" y="0" height="793"/></clipPath></defs><g clip-path="url(#f4f6aa3e49)"><path fill="#ffffff" d="M 0 0.0234375 L 727 0.0234375 L 727 792.976562 L 0 792.976562 Z M 0 0.0234375 " fill-opacity="1" fill-rule="nonzero"/><path fill="#ffffff" d="M 0 0.0234375 L 727 0.0234375 L 727 792.976562 L 0 792.976562 Z M 0 0.0234375 " fill-opacity="1" fill-rule="nonzero"/><g transform="matrix(1, 0, 0, 1, 0, -0.000000000000033546)"><g clip-path="url(#e3ecbf44dc)"><g clip-path="url(#0f534a154b)"><g transform="matrix(1, 0, 0, 1, 0, -0.000000000000033546)"><g clip-path="url(#435d583cb5)"><g clip-path="url(#a8d976f6ad)"><g transform="matrix(1, 0, 0, 1, 0, -0.000000000000033546)"><g clip-path="url(#0fee54a7a8)"><g clip-path="url(#6e183b32b8)"><g mask="url(#03ea1b1098)"><g transform="matrix(1, 0, 0, 1, 0, -0.000000000000033546)"><g clip-path="url(#c84b65da28)"><g clip-path="url(#21e73c92d1)"><path fill="url(#b26ec42cc8)" d="M 0 0.0234375 L 0 792.976562 L 727 792.976562 L 727 0.0234375 Z M 0 0.0234375 " fill-rule="nonzero"/></g></g></g></g></g></g></g></g></g></g></g><g clip-path="url(#c55f05a903)"><path fill="#ffffff" d="M 510.023438 480.164062 C 407.574219 504.261719 388.035156 523.796875 363.9375 626.246094 C 339.84375 523.792969 320.308594 504.257812 217.859375 480.164062 C 320.308594 456.0625 339.84375 436.527344 363.941406 334.078125 C 388.035156 436.527344 407.574219 456.0625 510.023438 480.164062 Z M 510.023438 480.164062 " fill-opacity="1" fill-rule="nonzero"/></g></g></g></g></svg>